<svg xmlns="http://www.w3.org/2000/svg" width="3840" height="2160" viewBox="0 0 3840 2160">
<rect x="0" y="0" width="3840" height="2160" rx="0" fill="#191B23" stroke="none" stroke-width="2"/>
<line x1="80" y1="30" x2="80" y2="2130" stroke="#242834" stroke-width="1" stroke-linecap="round"/>
<line x1="160" y1="30" x2="160" y2="2130" stroke="#242834" stroke-width="1" stroke-linecap="round"/>
<line x1="240" y1="30" x2="240" y2="2130" stroke="#242834" stroke-width="1" stroke-linecap="round"/>
<line x1="320" y1="30" x2="320" y2="2130" stroke="#242834" stroke-width="1" stroke-linecap="round"/>
<line x1="400" y1="30" x2="400" y2="2130" stroke="#242834" stroke-width="1" stroke-linecap="round"/>
<line x1="480" y1="30" x2="480" y2="2130" stroke="#242834" stroke-width="1" stroke-linecap="round"/>
<line x1="560" y1="30" x2="560" y2="2130" stroke="#242834" stroke-width="1" stroke-linecap="round"/>
<line x1="640" y1="30" x2="640" y2="2130" stroke="#242834" stroke-width="1" stroke-linecap="round"/>
<line x1="720" y1="30" x2="720" y2="2130" stroke="#242834" stroke-width="1" stroke-linecap="round"/>
<line x1="800" y1="30" x2="800" y2="2130" stroke="#242834" stroke-width="1" stroke-linecap="round"/>
<line x1="880" y1="30" x2="880" y2="2130" stroke="#242834" stroke-width="1" stroke-linecap="round"/>
<line x1="960" y1="30" x2="960" y2="2130" stroke="#242834" stroke-width="1" stroke-linecap="round"/>
<line x1="1040" y1="30" x2="1040" y2="2130" stroke="#242834" stroke-width="1" stroke-linecap="round"/>
<line x1="1120" y1="30" x2="1120" y2="2130" stroke="#242834" stroke-width="1" stroke-linecap="round"/>
<line x1="1200" y1="30" x2="1200" y2="2130" stroke="#242834" stroke-width="1" stroke-linecap="round"/>
<line x1="1280" y1="30" x2="1280" y2="2130" stroke="#242834" stroke-width="1" stroke-linecap="round"/>
<line x1="1360" y1="30" x2="1360" y2="2130" stroke="#242834" stroke-width="1" stroke-linecap="round"/>
<line x1="1440" y1="30" x2="1440" y2="2130" stroke="#242834" stroke-width="1" stroke-linecap="round"/>
<line x1="1520" y1="30" x2="1520" y2="2130" stroke="#242834" stroke-width="1" stroke-linecap="round"/>
<line x1="1600" y1="30" x2="1600" y2="2130" stroke="#242834" stroke-width="1" stroke-linecap="round"/>
<line x1="1680" y1="30" x2="1680" y2="2130" stroke="#242834" stroke-width="1" stroke-linecap="round"/>
<line x1="1760" y1="30" x2="1760" y2="2130" stroke="#242834" stroke-width="1" stroke-linecap="round"/>
<line x1="1840" y1="30" x2="1840" y2="2130" stroke="#242834" stroke-width="1" stroke-linecap="round"/>
<line x1="1920" y1="30" x2="1920" y2="2130" stroke="#242834" stroke-width="1" stroke-linecap="round"/>
<line x1="2000" y1="30" x2="2000" y2="2130" stroke="#242834" stroke-width="1" stroke-linecap="round"/>
<line x1="2080" y1="30" x2="2080" y2="2130" stroke="#242834" stroke-width="1" stroke-linecap="round"/>
<line x1="2160" y1="30" x2="2160" y2="2130" stroke="#242834" stroke-width="1" stroke-linecap="round"/>
<line x1="2240" y1="30" x2="2240" y2="2130" stroke="#242834" stroke-width="1" stroke-linecap="round"/>
<line x1="2320" y1="30" x2="2320" y2="2130" stroke="#242834" stroke-width="1" stroke-linecap="round"/>
<line x1="2400" y1="30" x2="2400" y2="2130" stroke="#242834" stroke-width="1" stroke-linecap="round"/>
<line x1="2480" y1="30" x2="2480" y2="2130" stroke="#242834" stroke-width="1" stroke-linecap="round"/>
<line x1="2560" y1="30" x2="2560" y2="2130" stroke="#242834" stroke-width="1" stroke-linecap="round"/>
<line x1="2640" y1="30" x2="2640" y2="2130" stroke="#242834" stroke-width="1" stroke-linecap="round"/>
<line x1="2720" y1="30" x2="2720" y2="2130" stroke="#242834" stroke-width="1" stroke-linecap="round"/>
<line x1="2800" y1="30" x2="2800" y2="2130" stroke="#242834" stroke-width="1" stroke-linecap="round"/>
<line x1="2880" y1="30" x2="2880" y2="2130" stroke="#242834" stroke-width="1" stroke-linecap="round"/>
<line x1="2960" y1="30" x2="2960" y2="2130" stroke="#242834" stroke-width="1" stroke-linecap="round"/>
<line x1="3040" y1="30" x2="3040" y2="2130" stroke="#242834" stroke-width="1" stroke-linecap="round"/>
<line x1="3120" y1="30" x2="3120" y2="2130" stroke="#242834" stroke-width="1" stroke-linecap="round"/>
<line x1="3200" y1="30" x2="3200" y2="2130" stroke="#242834" stroke-width="1" stroke-linecap="round"/>
<line x1="3280" y1="30" x2="3280" y2="2130" stroke="#242834" stroke-width="1" stroke-linecap="round"/>
<line x1="3360" y1="30" x2="3360" y2="2130" stroke="#242834" stroke-width="1" stroke-linecap="round"/>
<line x1="3440" y1="30" x2="3440" y2="2130" stroke="#242834" stroke-width="1" stroke-linecap="round"/>
<line x1="3520" y1="30" x2="3520" y2="2130" stroke="#242834" stroke-width="1" stroke-linecap="round"/>
<line x1="3600" y1="30" x2="3600" y2="2130" stroke="#242834" stroke-width="1" stroke-linecap="round"/>
<line x1="3680" y1="30" x2="3680" y2="2130" stroke="#242834" stroke-width="1" stroke-linecap="round"/>
<line x1="30" y1="80" x2="3810" y2="80" stroke="#242834" stroke-width="1" stroke-linecap="round"/>
<line x1="30" y1="160" x2="3810" y2="160" stroke="#242834" stroke-width="1" stroke-linecap="round"/>
<line x1="30" y1="240" x2="3810" y2="240" stroke="#242834" stroke-width="1" stroke-linecap="round"/>
<line x1="30" y1="320" x2="3810" y2="320" stroke="#242834" stroke-width="1" stroke-linecap="round"/>
<line x1="30" y1="400" x2="3810" y2="400" stroke="#242834" stroke-width="1" stroke-linecap="round"/>
<line x1="30" y1="480" x2="3810" y2="480" stroke="#242834" stroke-width="1" stroke-linecap="round"/>
<line x1="30" y1="560" x2="3810" y2="560" stroke="#242834" stroke-width="1" stroke-linecap="round"/>
<line x1="30" y1="640" x2="3810" y2="640" stroke="#242834" stroke-width="1" stroke-linecap="round"/>
<line x1="30" y1="720" x2="3810" y2="720" stroke="#242834" stroke-width="1" stroke-linecap="round"/>
<line x1="30" y1="800" x2="3810" y2="800" stroke="#242834" stroke-width="1" stroke-linecap="round"/>
<line x1="30" y1="880" x2="3810" y2="880" stroke="#242834" stroke-width="1" stroke-linecap="round"/>
<line x1="30" y1="960" x2="3810" y2="960" stroke="#242834" stroke-width="1" stroke-linecap="round"/>
<line x1="30" y1="1040" x2="3810" y2="1040" stroke="#242834" stroke-width="1" stroke-linecap="round"/>
<line x1="30" y1="1120" x2="3810" y2="1120" stroke="#242834" stroke-width="1" stroke-linecap="round"/>
<line x1="30" y1="1200" x2="3810" y2="1200" stroke="#242834" stroke-width="1" stroke-linecap="round"/>
<line x1="30" y1="1280" x2="3810" y2="1280" stroke="#242834" stroke-width="1" stroke-linecap="round"/>
<line x1="30" y1="1360" x2="3810" y2="1360" stroke="#242834" stroke-width="1" stroke-linecap="round"/>
<line x1="30" y1="1440" x2="3810" y2="1440" stroke="#242834" stroke-width="1" stroke-linecap="round"/>
<line x1="30" y1="1520" x2="3810" y2="1520" stroke="#242834" stroke-width="1" stroke-linecap="round"/>
<line x1="30" y1="1600" x2="3810" y2="1600" stroke="#242834" stroke-width="1" stroke-linecap="round"/>
<line x1="30" y1="1680" x2="3810" y2="1680" stroke="#242834" stroke-width="1" stroke-linecap="round"/>
<line x1="30" y1="1760" x2="3810" y2="1760" stroke="#242834" stroke-width="1" stroke-linecap="round"/>
<line x1="30" y1="1840" x2="3810" y2="1840" stroke="#242834" stroke-width="1" stroke-linecap="round"/>
<line x1="30" y1="1920" x2="3810" y2="1920" stroke="#242834" stroke-width="1" stroke-linecap="round"/>
<line x1="30" y1="2000" x2="3810" y2="2000" stroke="#242834" stroke-width="1" stroke-linecap="round"/>
<rect x="40" y="40" width="3760" height="2080" rx="14" fill="none" stroke="#5B6378" stroke-width="2"/>
<text x="105" y="171" fill="#E5E9F6" font-family="Menlo, DejaVu Sans Mono, monospace" font-size="80" font-weight="700" text-anchor="start" xml:space="preserve">OPENCODE PRETTY SIDEBAR</text>
<text x="108" y="255" fill="#B4BCD3" font-family="Menlo, DejaVu Sans Mono, monospace" font-size="52" font-weight="400" text-anchor="start" xml:space="preserve">Product Roadmap</text>
<line x1="105" y1="318" x2="3735" y2="318" stroke="#66708A" stroke-width="2" stroke-linecap="round"/>
<circle cx="3270" cy="226" r="10" fill="#72D9F0"/>
<circle cx="3331" cy="226" r="10" fill="#BA9EF4"/>
<circle cx="3392" cy="226" r="10" fill="#A8DE76"/>
<circle cx="3453" cy="226" r="10" fill="#F2BF72"/>
<circle cx="3514" cy="226" r="10" fill="#72D9F0"/>
<circle cx="3575" cy="226" r="10" fill="#BA9EF4"/>
<circle cx="3636" cy="226" r="10" fill="#A8DE76"/>
<rect x="86" y="385" width="505" height="1450" rx="18" fill="#1E202A" stroke="#41475A" stroke-width="2"/>
<rect x="88" y="387" width="501" height="9" rx="5" fill="#72D9F0" stroke="none" stroke-width="2"/>
<text x="120" y="460" fill="#72D9F0" font-family="Menlo, DejaVu Sans Mono, monospace" font-size="38" font-weight="700" text-anchor="start" xml:space="preserve">01</text>
<line x1="118" y1="710" x2="559" y2="710" stroke="#72D9F0" stroke-width="2" stroke-linecap="round"/>
<line x1="595" y1="446" x2="605" y2="446" stroke="#B4BCD3" stroke-width="3" stroke-linecap="round"/>
<line x1="592" y1="436" x2="605" y2="446" stroke="#B4BCD3" stroke-width="3" stroke-linecap="round"/>
<line x1="592" y1="456" x2="605" y2="446" stroke="#B4BCD3" stroke-width="3" stroke-linecap="round"/>
<rect x="275.5" y="499" width="126" height="82" rx="8" fill="none" stroke="#72D9F0" stroke-width="4"/>
<line x1="313.5" y1="499" x2="313.5" y2="581" stroke="#72D9F0" stroke-width="3" stroke-linecap="round"/>
<line x1="326.5" y1="520" x2="383.5" y2="520" stroke="#72D9F0" stroke-width="3" stroke-linecap="round"/>
<line x1="326.5" y1="544" x2="383.5" y2="544" stroke="#72D9F0" stroke-width="3" stroke-linecap="round"/>
<line x1="326.5" y1="568" x2="383.5" y2="568" stroke="#72D9F0" stroke-width="3" stroke-linecap="round"/>
<rect x="613" y="385" width="505" height="1450" rx="18" fill="#1E202A" stroke="#41475A" stroke-width="2"/>
<rect x="615" y="387" width="501" height="9" rx="5" fill="#BA9EF4" stroke="none" stroke-width="2"/>
<text x="647" y="460" fill="#BA9EF4" font-family="Menlo, DejaVu Sans Mono, monospace" font-size="38" font-weight="700" text-anchor="start" xml:space="preserve">02</text>
<line x1="645" y1="710" x2="1086" y2="710" stroke="#BA9EF4" stroke-width="2" stroke-linecap="round"/>
<line x1="1122" y1="446" x2="1132" y2="446" stroke="#B4BCD3" stroke-width="3" stroke-linecap="round"/>
<line x1="1119" y1="436" x2="1132" y2="446" stroke="#B4BCD3" stroke-width="3" stroke-linecap="round"/>
<line x1="1119" y1="456" x2="1132" y2="446" stroke="#B4BCD3" stroke-width="3" stroke-linecap="round"/>
<rect x="798.5" y="506" width="134" height="78" rx="10" fill="none" stroke="#BA9EF4" stroke-width="4"/>
<rect x="813.5" y="520" width="20" height="16" rx="3" fill="none" stroke="#BA9EF4" stroke-width="2"/>
<rect x="842.5" y="520" width="20" height="16" rx="3" fill="none" stroke="#BA9EF4" stroke-width="2"/>
<rect x="871.5" y="520" width="20" height="16" rx="3" fill="none" stroke="#BA9EF4" stroke-width="2"/>
<rect x="900.5" y="520" width="20" height="16" rx="3" fill="none" stroke="#BA9EF4" stroke-width="2"/>
<rect x="813.5" y="546" width="20" height="16" rx="3" fill="none" stroke="#BA9EF4" stroke-width="2"/>
<rect x="842.5" y="546" width="20" height="16" rx="3" fill="none" stroke="#BA9EF4" stroke-width="2"/>
<rect x="871.5" y="546" width="20" height="16" rx="3" fill="none" stroke="#BA9EF4" stroke-width="2"/>
<rect x="900.5" y="546" width="20" height="16" rx="3" fill="none" stroke="#BA9EF4" stroke-width="2"/>
<line x1="840.5" y1="571" x2="892.5" y2="571" stroke="#BA9EF4" stroke-width="3" stroke-linecap="round"/>
<rect x="1140" y="385" width="505" height="1450" rx="18" fill="#1E202A" stroke="#41475A" stroke-width="2"/>
<rect x="1142" y="387" width="501" height="9" rx="5" fill="#A8DE76" stroke="none" stroke-width="2"/>
<text x="1174" y="460" fill="#A8DE76" font-family="Menlo, DejaVu Sans Mono, monospace" font-size="38" font-weight="700" text-anchor="start" xml:space="preserve">03</text>
<line x1="1172" y1="710" x2="1613" y2="710" stroke="#A8DE76" stroke-width="2" stroke-linecap="round"/>
<line x1="1649" y1="446" x2="1659" y2="446" stroke="#B4BCD3" stroke-width="3" stroke-linecap="round"/>
<line x1="1646" y1="436" x2="1659" y2="446" stroke="#B4BCD3" stroke-width="3" stroke-linecap="round"/>
<line x1="1646" y1="456" x2="1659" y2="446" stroke="#B4BCD3" stroke-width="3" stroke-linecap="round"/>
<rect x="1334.5" y="504" width="17" height="17" rx="3" fill="none" stroke="#A8DE76" stroke-width="3"/>
<line x1="1365.5" y1="514" x2="1447.5" y2="514" stroke="#A8DE76" stroke-width="3" stroke-linecap="round"/>
<rect x="1334.5" y="534" width="17" height="17" rx="3" fill="none" stroke="#A8DE76" stroke-width="3"/>
<line x1="1365.5" y1="544" x2="1447.5" y2="544" stroke="#A8DE76" stroke-width="3" stroke-linecap="round"/>
<rect x="1334.5" y="564" width="17" height="17" rx="3" fill="none" stroke="#A8DE76" stroke-width="3"/>
<line x1="1365.5" y1="574" x2="1447.5" y2="574" stroke="#A8DE76" stroke-width="3" stroke-linecap="round"/>
<rect x="1667" y="385" width="505" height="1450" rx="18" fill="#1E202A" stroke="#41475A" stroke-width="2"/>
<rect x="1669" y="387" width="501" height="9" rx="5" fill="#F2BF72" stroke="none" stroke-width="2"/>
<text x="1701" y="460" fill="#F2BF72" font-family="Menlo, DejaVu Sans Mono, monospace" font-size="38" font-weight="700" text-anchor="start" xml:space="preserve">04</text>
<line x1="1699" y1="710" x2="2140" y2="710" stroke="#F2BF72" stroke-width="2" stroke-linecap="round"/>
<line x1="2176" y1="446" x2="2186" y2="446" stroke="#B4BCD3" stroke-width="3" stroke-linecap="round"/>
<line x1="2173" y1="436" x2="2186" y2="446" stroke="#B4BCD3" stroke-width="3" stroke-linecap="round"/>
<line x1="2173" y1="456" x2="2186" y2="446" stroke="#B4BCD3" stroke-width="3" stroke-linecap="round"/>
<rect x="1855.5" y="502" width="33" height="34" rx="6" fill="none" stroke="#F2BF72" stroke-width="3"/>
<line x1="1871.5" y1="536" x2="1919.5" y2="579" stroke="#F2BF72" stroke-width="2" stroke-linecap="round"/>
<rect x="1900.5" y="502" width="33" height="34" rx="6" fill="none" stroke="#F2BF72" stroke-width="3"/>
<line x1="1916.5" y1="536" x2="1919.5" y2="579" stroke="#F2BF72" stroke-width="2" stroke-linecap="round"/>
<rect x="1945.5" y="502" width="33" height="34" rx="6" fill="none" stroke="#F2BF72" stroke-width="3"/>
<line x1="1961.5" y1="536" x2="1919.5" y2="579" stroke="#F2BF72" stroke-width="2" stroke-linecap="round"/>
<rect x="1898.5" y="579" width="42" height="22" rx="5" fill="none" stroke="#F2BF72" stroke-width="3"/>
<rect x="2194" y="385" width="505" height="1450" rx="18" fill="#1E202A" stroke="#41475A" stroke-width="2"/>
<rect x="2196" y="387" width="501" height="9" rx="5" fill="#72D9F0" stroke="none" stroke-width="2"/>
<text x="2228" y="460" fill="#72D9F0" font-family="Menlo, DejaVu Sans Mono, monospace" font-size="38" font-weight="700" text-anchor="start" xml:space="preserve">05</text>
<line x1="2226" y1="710" x2="2667" y2="710" stroke="#72D9F0" stroke-width="2" stroke-linecap="round"/>
<line x1="2703" y1="446" x2="2713" y2="446" stroke="#B4BCD3" stroke-width="3" stroke-linecap="round"/>
<line x1="2700" y1="436" x2="2713" y2="446" stroke="#B4BCD3" stroke-width="3" stroke-linecap="round"/>
<line x1="2700" y1="456" x2="2713" y2="446" stroke="#B4BCD3" stroke-width="3" stroke-linecap="round"/>
<circle cx="2436.5" cy="533" r="38" fill="none" stroke="#72D9F0" stroke-width="4"/>
<line x1="2466.5" y1="563" x2="2514.5" y2="610" stroke="#72D9F0" stroke-width="5" stroke-linecap="round"/>
<rect x="2721" y="385" width="505" height="1450" rx="18" fill="#1E202A" stroke="#41475A" stroke-width="2"/>
<rect x="2723" y="387" width="501" height="9" rx="5" fill="#BA9EF4" stroke="none" stroke-width="2"/>
<text x="2755" y="460" fill="#BA9EF4" font-family="Menlo, DejaVu Sans Mono, monospace" font-size="38" font-weight="700" text-anchor="start" xml:space="preserve">06</text>
<line x1="2753" y1="710" x2="3194" y2="710" stroke="#BA9EF4" stroke-width="2" stroke-linecap="round"/>
<line x1="3230" y1="446" x2="3240" y2="446" stroke="#B4BCD3" stroke-width="3" stroke-linecap="round"/>
<line x1="3227" y1="436" x2="3240" y2="446" stroke="#B4BCD3" stroke-width="3" stroke-linecap="round"/>
<line x1="3227" y1="456" x2="3240" y2="446" stroke="#B4BCD3" stroke-width="3" stroke-linecap="round"/>
<rect x="2929.5" y="494" width="88" height="107" rx="6" fill="none" stroke="#BA9EF4" stroke-width="4"/>
<line x1="2984.5" y1="494" x2="2984.5" y2="525" stroke="#BA9EF4" stroke-width="3" stroke-linecap="round"/>
<line x1="2984.5" y1="525" x2="3017.5" y2="525" stroke="#BA9EF4" stroke-width="3" stroke-linecap="round"/>
<line x1="2947.5" y1="550" x2="2999.5" y2="550" stroke="#BA9EF4" stroke-width="3" stroke-linecap="round"/>
<line x1="2947.5" y1="572" x2="2989.5" y2="572" stroke="#BA9EF4" stroke-width="3" stroke-linecap="round"/>
<rect x="3248" y="385" width="505" height="1450" rx="18" fill="#1E202A" stroke="#41475A" stroke-width="2"/>
<rect x="3250" y="387" width="501" height="9" rx="5" fill="#A8DE76" stroke="none" stroke-width="2"/>
<text x="3282" y="460" fill="#A8DE76" font-family="Menlo, DejaVu Sans Mono, monospace" font-size="38" font-weight="700" text-anchor="start" xml:space="preserve">07</text>
<line x1="3280" y1="710" x2="3721" y2="710" stroke="#A8DE76" stroke-width="2" stroke-linecap="round"/>
<line x1="3458.5" y1="492" x2="3458.5" y2="599" stroke="#A8DE76" stroke-width="4" stroke-linecap="round"/>
<line x1="3458.5" y1="492" x2="3548.5" y2="504" stroke="#A8DE76" stroke-width="4" stroke-linecap="round"/>
<line x1="3548.5" y1="504" x2="3548.5" y2="556" stroke="#A8DE76" stroke-width="4" stroke-linecap="round"/>
<line x1="3548.5" y1="556" x2="3458.5" y2="547" stroke="#A8DE76" stroke-width="4" stroke-linecap="round"/>
<text x="338.5" y="654" fill="#E5E9F6" font-family="Menlo, DejaVu Sans Mono, monospace" font-size="33" font-weight="700" text-anchor="middle" xml:space="preserve">ПРЕСЕТЫ И</text>
<text x="338.5" y="697" fill="#E5E9F6" font-family="Menlo, DejaVu Sans Mono, monospace" font-size="33" font-weight="700" text-anchor="middle" xml:space="preserve">ЛЕЙАУТЫ</text>
<text x="865.5" y="654" fill="#E5E9F6" font-family="Menlo, DejaVu Sans Mono, monospace" font-size="33" font-weight="700" text-anchor="middle" xml:space="preserve">КЛАВИАТУРНАЯ</text>
<text x="865.5" y="697" fill="#E5E9F6" font-family="Menlo, DejaVu Sans Mono, monospace" font-size="33" font-weight="700" text-anchor="middle" xml:space="preserve">НАВИГАЦИЯ</text>
<text x="1392.5" y="654" fill="#E5E9F6" font-family="Menlo, DejaVu Sans Mono, monospace" font-size="33" font-weight="700" text-anchor="middle" xml:space="preserve">УЛУЧШЕНИЕ</text>
<text x="1392.5" y="697" fill="#E5E9F6" font-family="Menlo, DejaVu Sans Mono, monospace" font-size="33" font-weight="700" text-anchor="middle" xml:space="preserve">СЕКЦИЙ</text>
<text x="1919.5" y="654" fill="#E5E9F6" font-family="Menlo, DejaVu Sans Mono, monospace" font-size="33" font-weight="700" text-anchor="middle" xml:space="preserve">АГЕНТЫ</text>
<text x="1919.5" y="697" fill="#E5E9F6" font-family="Menlo, DejaVu Sans Mono, monospace" font-size="33" font-weight="700" text-anchor="middle" xml:space="preserve">И ЛИМИТЫ</text>
<text x="2446.5" y="654" fill="#E5E9F6" font-family="Menlo, DejaVu Sans Mono, monospace" font-size="33" font-weight="700" text-anchor="middle" xml:space="preserve">ЕДИНЫЙ</text>
<text x="2446.5" y="697" fill="#E5E9F6" font-family="Menlo, DejaVu Sans Mono, monospace" font-size="33" font-weight="700" text-anchor="middle" xml:space="preserve">ПОИСК</text>
<text x="2973.5" y="654" fill="#E5E9F6" font-family="Menlo, DejaVu Sans Mono, monospace" font-size="33" font-weight="700" text-anchor="middle" xml:space="preserve">ПРОФИЛИ И</text>
<text x="2973.5" y="697" fill="#E5E9F6" font-family="Menlo, DejaVu Sans Mono, monospace" font-size="33" font-weight="700" text-anchor="middle" xml:space="preserve">ПЕРЕНОСИМОСТЬ</text>
<text x="3500.5" y="654" fill="#E5E9F6" font-family="Menlo, DejaVu Sans Mono, monospace" font-size="33" font-weight="700" text-anchor="middle" xml:space="preserve">STABLE 1.0</text>
<circle cx="118" cy="776" r="8" fill="#72D9F0"/>
<text x="145" y="783" fill="#E5E9F6" font-family="Menlo, DejaVu Sans Mono, monospace" font-size="28" font-weight="400" text-anchor="start" xml:space="preserve">Layout: Minimal / Coding</text>
<text x="145" y="822" fill="#E5E9F6" font-family="Menlo, DejaVu Sans Mono, monospace" font-size="28" font-weight="400" text-anchor="start" xml:space="preserve">Agents / Full</text>
<circle cx="118" cy="946" r="8" fill="#72D9F0"/>
<text x="145" y="953" fill="#E5E9F6" font-family="Menlo, DejaVu Sans Mono, monospace" font-size="28" font-weight="400" text-anchor="start" xml:space="preserve">Пользовательские</text>
<text x="145" y="992" fill="#E5E9F6" font-family="Menlo, DejaVu Sans Mono, monospace" font-size="28" font-weight="400" text-anchor="start" xml:space="preserve">пресеты</text>
<circle cx="118" cy="1116" r="8" fill="#72D9F0"/>
<text x="145" y="1123" fill="#E5E9F6" font-family="Menlo, DejaVu Sans Mono, monospace" font-size="28" font-weight="400" text-anchor="start" xml:space="preserve">Порядок секций</text>
<text x="145" y="1162" fill="#E5E9F6" font-family="Menlo, DejaVu Sans Mono, monospace" font-size="28" font-weight="400" text-anchor="start" xml:space="preserve">и плотность интерфейса</text>
<circle cx="118" cy="1286" r="8" fill="#72D9F0"/>
<text x="145" y="1293" fill="#E5E9F6" font-family="Menlo, DejaVu Sans Mono, monospace" font-size="28" font-weight="400" text-anchor="start" xml:space="preserve">Глобально и</text>
<text x="145" y="1332" fill="#E5E9F6" font-family="Menlo, DejaVu Sans Mono, monospace" font-size="28" font-weight="400" text-anchor="start" xml:space="preserve">для worktree</text>
<circle cx="118" cy="1456" r="8" fill="#72D9F0"/>
<text x="145" y="1463" fill="#E5E9F6" font-family="Menlo, DejaVu Sans Mono, monospace" font-size="28" font-weight="400" text-anchor="start" xml:space="preserve">MCP: enabled / disabled</text>
<text x="145" y="1502" fill="#E5E9F6" font-family="Menlo, DejaVu Sans Mono, monospace" font-size="28" font-weight="400" text-anchor="start" xml:space="preserve">пресеты серверов</text>
<circle cx="118" cy="1626" r="8" fill="#72D9F0"/>
<text x="145" y="1633" fill="#E5E9F6" font-family="Menlo, DejaVu Sans Mono, monospace" font-size="28" font-weight="400" text-anchor="start" xml:space="preserve">Preview и массовое</text>
<text x="145" y="1672" fill="#E5E9F6" font-family="Menlo, DejaVu Sans Mono, monospace" font-size="28" font-weight="400" text-anchor="start" xml:space="preserve">применение</text>
<circle cx="645" cy="776" r="8" fill="#BA9EF4"/>
<text x="672" y="783" fill="#E5E9F6" font-family="Menlo, DejaVu Sans Mono, monospace" font-size="28" font-weight="400" text-anchor="start" xml:space="preserve">Полное управление</text>
<text x="672" y="822" fill="#E5E9F6" font-family="Menlo, DejaVu Sans Mono, monospace" font-size="28" font-weight="400" text-anchor="start" xml:space="preserve">без мыши</text>
<circle cx="645" cy="946" r="8" fill="#BA9EF4"/>
<text x="672" y="953" fill="#E5E9F6" font-family="Menlo, DejaVu Sans Mono, monospace" font-size="28" font-weight="400" text-anchor="start" xml:space="preserve">Переход между</text>
<text x="672" y="992" fill="#E5E9F6" font-family="Menlo, DejaVu Sans Mono, monospace" font-size="28" font-weight="400" text-anchor="start" xml:space="preserve">секциями и строками</text>
<circle cx="645" cy="1116" r="8" fill="#BA9EF4"/>
<text x="672" y="1123" fill="#E5E9F6" font-family="Menlo, DejaVu Sans Mono, monospace" font-size="28" font-weight="400" text-anchor="start" xml:space="preserve">Горячие клавиши</text>
<circle cx="645" cy="1256" r="8" fill="#BA9EF4"/>
<text x="672" y="1263" fill="#E5E9F6" font-family="Menlo, DejaVu Sans Mono, monospace" font-size="28" font-weight="400" text-anchor="start" xml:space="preserve">Focus / hover /</text>
<text x="672" y="1302" fill="#E5E9F6" font-family="Menlo, DejaVu Sans Mono, monospace" font-size="28" font-weight="400" text-anchor="start" xml:space="preserve">pending states</text>
<circle cx="645" cy="1426" r="8" fill="#BA9EF4"/>
<text x="672" y="1433" fill="#E5E9F6" font-family="Menlo, DejaVu Sans Mono, monospace" font-size="28" font-weight="400" text-anchor="start" xml:space="preserve">Встроенная подсказка</text>
<text x="672" y="1472" fill="#E5E9F6" font-family="Menlo, DejaVu Sans Mono, monospace" font-size="28" font-weight="400" text-anchor="start" xml:space="preserve">управления</text>
<rect x="642" y="1605" width="447" height="155" rx="10" fill="#252936" stroke="#41475A" stroke-width="2"/>
<text x="672" y="1659" fill="#E5E9F6" font-family="Menlo, DejaVu Sans Mono, monospace" font-size="33" font-weight="700" text-anchor="start" xml:space="preserve">↑   ↓   ←   →</text>
<text x="672" y="1714" fill="#B4BCD3" font-family="Menlo, DejaVu Sans Mono, monospace" font-size="29" font-weight="400" text-anchor="start" xml:space="preserve">TAB   ENTER   ?</text>
<rect x="1168" y="743" width="449" height="146" rx="10" fill="#252936" stroke="#50586D" stroke-width="1.5"/>
<rect x="1187" y="771" width="22" height="22" rx="4" fill="none" stroke="#A8DE76" stroke-width="3"/>
<text x="1226" y="793" fill="#E5E9F6" font-family="Menlo, DejaVu Sans Mono, monospace" font-size="29" font-weight="700" text-anchor="start" xml:space="preserve">Todo</text>
<text x="1187" y="847" fill="#B4BCD3" font-family="Menlo, DejaVu Sans Mono, monospace" font-size="24" font-weight="400" text-anchor="start" xml:space="preserve">Фильтры · группы · прогресс</text>
<rect x="1168" y="914" width="449" height="146" rx="10" fill="#252936" stroke="#50586D" stroke-width="1.5"/>
<rect x="1187" y="942" width="22" height="22" rx="4" fill="none" stroke="#A8DE76" stroke-width="3"/>
<text x="1226" y="964" fill="#E5E9F6" font-family="Menlo, DejaVu Sans Mono, monospace" font-size="29" font-weight="700" text-anchor="start" xml:space="preserve">Subagents</text>
<text x="1187" y="1018" fill="#B4BCD3" font-family="Menlo, DejaVu Sans Mono, monospace" font-size="24" font-weight="400" text-anchor="start" xml:space="preserve">Runtime · статусы · ошибки</text>
<rect x="1168" y="1085" width="449" height="146" rx="10" fill="#252936" stroke="#50586D" stroke-width="1.5"/>
<rect x="1187" y="1113" width="22" height="22" rx="4" fill="none" stroke="#A8DE76" stroke-width="3"/>
<text x="1226" y="1135" fill="#E5E9F6" font-family="Menlo, DejaVu Sans Mono, monospace" font-size="29" font-weight="700" text-anchor="start" xml:space="preserve">Skills</text>
<text x="1187" y="1189" fill="#B4BCD3" font-family="Menlo, DejaVu Sans Mono, monospace" font-size="24" font-weight="400" text-anchor="start" xml:space="preserve">Избранное · история · fuzzy</text>
<rect x="1168" y="1256" width="449" height="146" rx="10" fill="#252936" stroke="#50586D" stroke-width="1.5"/>
<rect x="1187" y="1284" width="22" height="22" rx="4" fill="none" stroke="#A8DE76" stroke-width="3"/>
<text x="1226" y="1306" fill="#E5E9F6" font-family="Menlo, DejaVu Sans Mono, monospace" font-size="29" font-weight="700" text-anchor="start" xml:space="preserve">Quick Actions</text>
<text x="1187" y="1360" fill="#B4BCD3" font-family="Menlo, DejaVu Sans Mono, monospace" font-size="24" font-weight="400" text-anchor="start" xml:space="preserve">Настройка · свои команды</text>
<rect x="1168" y="1427" width="449" height="146" rx="10" fill="#252936" stroke="#50586D" stroke-width="1.5"/>
<rect x="1187" y="1455" width="22" height="22" rx="4" fill="none" stroke="#A8DE76" stroke-width="3"/>
<text x="1226" y="1477" fill="#E5E9F6" font-family="Menlo, DejaVu Sans Mono, monospace" font-size="29" font-weight="700" text-anchor="start" xml:space="preserve">LSP</text>
<text x="1187" y="1531" fill="#B4BCD3" font-family="Menlo, DejaVu Sans Mono, monospace" font-size="24" font-weight="400" text-anchor="start" xml:space="preserve">Сортировка · детали · ошибки</text>
<rect x="1168" y="1598" width="449" height="146" rx="10" fill="#252936" stroke="#50586D" stroke-width="1.5"/>
<rect x="1187" y="1626" width="22" height="22" rx="4" fill="none" stroke="#A8DE76" stroke-width="3"/>
<text x="1226" y="1648" fill="#E5E9F6" font-family="Menlo, DejaVu Sans Mono, monospace" font-size="29" font-weight="700" text-anchor="start" xml:space="preserve">MCP</text>
<text x="1187" y="1702" fill="#B4BCD3" font-family="Menlo, DejaVu Sans Mono, monospace" font-size="24" font-weight="400" text-anchor="start" xml:space="preserve">Группы · retry · bulk actions</text>
<rect x="1696" y="739" width="447" height="169" rx="10" fill="#252936" stroke="#41475A" stroke-width="2"/>
<circle cx="1724" cy="775" r="7" fill="#F2BF72"/>
<text x="1743" y="783" fill="#E5E9F6" font-family="Menlo, DejaVu Sans Mono, monospace" font-size="27" font-weight="700" text-anchor="start" xml:space="preserve">OpenCode Agents</text>
<text x="1720" y="832" fill="#B4BCD3" font-family="Menlo, DejaVu Sans Mono, monospace" font-size="25" font-weight="400" text-anchor="start" xml:space="preserve">Агент · модель</text>
<text x="1720" y="868" fill="#B4BCD3" font-family="Menlo, DejaVu Sans Mono, monospace" font-size="25" font-weight="400" text-anchor="start" xml:space="preserve">· провайдер</text>
<rect x="1696" y="929" width="447" height="169" rx="10" fill="#252936" stroke="#41475A" stroke-width="2"/>
<circle cx="1724" cy="965" r="7" fill="#F2BF72"/>
<text x="1743" y="973" fill="#E5E9F6" font-family="Menlo, DejaVu Sans Mono, monospace" font-size="27" font-weight="700" text-anchor="start" xml:space="preserve">Provider Quotas</text>
<text x="1720" y="1022" fill="#B4BCD3" font-family="Menlo, DejaVu Sans Mono, monospace" font-size="25" font-weight="400" text-anchor="start" xml:space="preserve">OpenAI · Anthropic</text>
<text x="1720" y="1058" fill="#B4BCD3" font-family="Menlo, DejaVu Sans Mono, monospace" font-size="25" font-weight="400" text-anchor="start" xml:space="preserve">· Google</text>
<rect x="1696" y="1119" width="447" height="169" rx="10" fill="#252936" stroke="#41475A" stroke-width="2"/>
<circle cx="1724" cy="1155" r="7" fill="#F2BF72"/>
<text x="1743" y="1163" fill="#E5E9F6" font-family="Menlo, DejaVu Sans Mono, monospace" font-size="27" font-weight="700" text-anchor="start" xml:space="preserve">External CLIs</text>
<text x="1720" y="1212" fill="#B4BCD3" font-family="Menlo, DejaVu Sans Mono, monospace" font-size="25" font-weight="400" text-anchor="start" xml:space="preserve">Claude Code · Codex CLI</text>
<text x="1720" y="1248" fill="#B4BCD3" font-family="Menlo, DejaVu Sans Mono, monospace" font-size="25" font-weight="400" text-anchor="start" xml:space="preserve">· Gemini CLI</text>
<line x1="1789.5" y1="1328" x2="2049.5" y2="1328" stroke="#F2BF72" stroke-width="3" stroke-linecap="round"/>
<line x1="2036.5" y1="1318" x2="2049.5" y2="1328" stroke="#F2BF72" stroke-width="3" stroke-linecap="round"/>
<line x1="2036.5" y1="1338" x2="2049.5" y2="1328" stroke="#F2BF72" stroke-width="3" stroke-linecap="round"/>
<rect x="1696" y="1365" width="447" height="90" rx="10" fill="#2D2C30" stroke="#F2BF72" stroke-width="2"/>
<text x="1919.5" y="1408" fill="#F2BF72" font-family="Menlo, DejaVu Sans Mono, monospace" font-size="25" font-weight="700" text-anchor="middle" xml:space="preserve">INDEPENDENT ADAPTERS</text>
<text x="1919.5" y="1440" fill="#E5E9F6" font-family="Menlo, DejaVu Sans Mono, monospace" font-size="24" font-weight="400" text-anchor="middle" xml:space="preserve">→ ЕДИНЫЕ ДАННЫЕ</text>
<circle cx="1720" cy="1518" r="7" fill="#F2BF72"/>
<text x="1745" y="1526" fill="#B4BCD3" font-family="Menlo, DejaVu Sans Mono, monospace" font-size="26" font-weight="400" text-anchor="start" xml:space="preserve">Used / Remaining</text>
<line x1="2032" y1="1538" x2="2117" y2="1538" stroke="#596071" stroke-width="4" stroke-linecap="round"/>
<line x1="2032" y1="1538" x2="2062" y2="1538" stroke="#F2BF72" stroke-width="4" stroke-linecap="round"/>
<circle cx="1720" cy="1590" r="7" fill="#F2BF72"/>
<text x="1745" y="1598" fill="#B4BCD3" font-family="Menlo, DejaVu Sans Mono, monospace" font-size="26" font-weight="400" text-anchor="start" xml:space="preserve">Reset window</text>
<line x1="2032" y1="1610" x2="2117" y2="1610" stroke="#596071" stroke-width="4" stroke-linecap="round"/>
<line x1="2032" y1="1610" x2="2072" y2="1610" stroke="#F2BF72" stroke-width="4" stroke-linecap="round"/>
<circle cx="1720" cy="1662" r="7" fill="#F2BF72"/>
<text x="1745" y="1670" fill="#B4BCD3" font-family="Menlo, DejaVu Sans Mono, monospace" font-size="26" font-weight="400" text-anchor="start" xml:space="preserve">Data freshness</text>
<line x1="2032" y1="1682" x2="2117" y2="1682" stroke="#596071" stroke-width="4" stroke-linecap="round"/>
<line x1="2032" y1="1682" x2="2082" y2="1682" stroke="#F2BF72" stroke-width="4" stroke-linecap="round"/>
<circle cx="1720" cy="1734" r="7" fill="#F2BF72"/>
<text x="1745" y="1742" fill="#B4BCD3" font-family="Menlo, DejaVu Sans Mono, monospace" font-size="26" font-weight="400" text-anchor="start" xml:space="preserve">Warning threshold</text>
<line x1="2032" y1="1754" x2="2117" y2="1754" stroke="#596071" stroke-width="4" stroke-linecap="round"/>
<line x1="2032" y1="1754" x2="2092" y2="1754" stroke="#F2BF72" stroke-width="4" stroke-linecap="round"/>
<circle cx="2226" cy="776" r="8" fill="#72D9F0"/>
<text x="2253" y="783" fill="#E5E9F6" font-family="Menlo, DejaVu Sans Mono, monospace" font-size="28" font-weight="400" text-anchor="start" xml:space="preserve">Skills · Subagents</text>
<text x="2253" y="822" fill="#E5E9F6" font-family="Menlo, DejaVu Sans Mono, monospace" font-size="28" font-weight="400" text-anchor="start" xml:space="preserve">MCP · Actions</text>
<circle cx="2226" cy="951" r="8" fill="#72D9F0"/>
<text x="2253" y="958" fill="#E5E9F6" font-family="Menlo, DejaVu Sans Mono, monospace" font-size="28" font-weight="400" text-anchor="start" xml:space="preserve">Fuzzy matching</text>
<circle cx="2226" cy="1096" r="8" fill="#72D9F0"/>
<text x="2253" y="1103" fill="#E5E9F6" font-family="Menlo, DejaVu Sans Mono, monospace" font-size="28" font-weight="400" text-anchor="start" xml:space="preserve">Группировка</text>
<text x="2253" y="1142" fill="#E5E9F6" font-family="Menlo, DejaVu Sans Mono, monospace" font-size="28" font-weight="400" text-anchor="start" xml:space="preserve">результатов</text>
<circle cx="2226" cy="1271" r="8" fill="#72D9F0"/>
<text x="2253" y="1278" fill="#E5E9F6" font-family="Menlo, DejaVu Sans Mono, monospace" font-size="28" font-weight="400" text-anchor="start" xml:space="preserve">Recent selections</text>
<circle cx="2226" cy="1416" r="8" fill="#72D9F0"/>
<text x="2253" y="1423" fill="#E5E9F6" font-family="Menlo, DejaVu Sans Mono, monospace" font-size="28" font-weight="400" text-anchor="start" xml:space="preserve">Keyboard-first</text>
<text x="2253" y="1462" fill="#E5E9F6" font-family="Menlo, DejaVu Sans Mono, monospace" font-size="28" font-weight="400" text-anchor="start" xml:space="preserve">управление</text>
<rect x="2222" y="1585" width="449" height="174" rx="10" fill="#252936" stroke="#41475A" stroke-width="2"/>
<rect x="2240" y="1606" width="413" height="50" rx="7" fill="none" stroke="#72D9F0" stroke-width="2"/>
<text x="2258" y="1641" fill="#B4BCD3" font-family="Menlo, DejaVu Sans Mono, monospace" font-size="27" font-weight="400" text-anchor="start" xml:space="preserve">⌕  Search...</text>
<text x="2247" y="1699" fill="#E5E9F6" font-family="Menlo, DejaVu Sans Mono, monospace" font-size="25" font-weight="400" text-anchor="start" xml:space="preserve">› Skills       03</text>
<text x="2247" y="1740" fill="#E5E9F6" font-family="Menlo, DejaVu Sans Mono, monospace" font-size="25" font-weight="400" text-anchor="start" xml:space="preserve">› MCP          04</text>
<circle cx="2753" cy="776" r="8" fill="#BA9EF4"/>
<text x="2780" y="783" fill="#E5E9F6" font-family="Menlo, DejaVu Sans Mono, monospace" font-size="28" font-weight="400" text-anchor="start" xml:space="preserve">Импорт / экспорт JSON</text>
<circle cx="2753" cy="946" r="8" fill="#BA9EF4"/>
<text x="2780" y="953" fill="#E5E9F6" font-family="Menlo, DejaVu Sans Mono, monospace" font-size="28" font-weight="400" text-anchor="start" xml:space="preserve">Project-local</text>
<text x="2780" y="992" fill="#E5E9F6" font-family="Menlo, DejaVu Sans Mono, monospace" font-size="28" font-weight="400" text-anchor="start" xml:space="preserve">profiles</text>
<circle cx="2753" cy="1116" r="8" fill="#BA9EF4"/>
<text x="2780" y="1123" fill="#E5E9F6" font-family="Menlo, DejaVu Sans Mono, monospace" font-size="28" font-weight="400" text-anchor="start" xml:space="preserve">Layout + MCP-пресеты</text>
<circle cx="2753" cy="1286" r="8" fill="#BA9EF4"/>
<text x="2780" y="1293" fill="#E5E9F6" font-family="Menlo, DejaVu Sans Mono, monospace" font-size="28" font-weight="400" text-anchor="start" xml:space="preserve">Версионированная</text>
<text x="2780" y="1332" fill="#E5E9F6" font-family="Menlo, DejaVu Sans Mono, monospace" font-size="28" font-weight="400" text-anchor="start" xml:space="preserve">схема настроек</text>
<circle cx="2753" cy="1466" r="8" fill="#BA9EF4"/>
<text x="2780" y="1473" fill="#E5E9F6" font-family="Menlo, DejaVu Sans Mono, monospace" font-size="28" font-weight="400" text-anchor="start" xml:space="preserve">Global / Worktree</text>
<text x="2780" y="1512" fill="#E5E9F6" font-family="Menlo, DejaVu Sans Mono, monospace" font-size="28" font-weight="400" text-anchor="start" xml:space="preserve">/ Project scope</text>
<rect x="2750" y="1650" width="447" height="110" rx="10" fill="#252936" stroke="#41475A" stroke-width="2"/>
<text x="2769" y="1697" fill="#B4BCD3" font-family="Menlo, DejaVu Sans Mono, monospace" font-size="25" font-weight="400" text-anchor="start" xml:space="preserve">{  &quot;schema&quot;: 1,</text>
<text x="2769" y="1736" fill="#B4BCD3" font-family="Menlo, DejaVu Sans Mono, monospace" font-size="23" font-weight="400" text-anchor="start" xml:space="preserve">   &quot;scope&quot;: &quot;project&quot;  }</text>
<circle cx="3280" cy="776" r="8" fill="#A8DE76"/>
<text x="3307" y="783" fill="#E5E9F6" font-family="Menlo, DejaVu Sans Mono, monospace" font-size="28" font-weight="400" text-anchor="start" xml:space="preserve">Модульная архитектура</text>
<circle cx="3280" cy="916" r="8" fill="#A8DE76"/>
<text x="3307" y="923" fill="#E5E9F6" font-family="Menlo, DejaVu Sans Mono, monospace" font-size="28" font-weight="400" text-anchor="start" xml:space="preserve">Actionable error states</text>
<circle cx="3280" cy="1056" r="8" fill="#A8DE76"/>
<text x="3307" y="1063" fill="#E5E9F6" font-family="Menlo, DejaVu Sans Mono, monospace" font-size="28" font-weight="400" text-anchor="start" xml:space="preserve">Защита от stale</text>
<text x="3307" y="1102" fill="#E5E9F6" font-family="Menlo, DejaVu Sans Mono, monospace" font-size="28" font-weight="400" text-anchor="start" xml:space="preserve">requests</text>
<circle cx="3280" cy="1226" r="8" fill="#A8DE76"/>
<text x="3307" y="1233" fill="#E5E9F6" font-family="Menlo, DejaVu Sans Mono, monospace" font-size="28" font-weight="400" text-anchor="start" xml:space="preserve">E2E и performance tests</text>
<circle cx="3280" cy="1366" r="8" fill="#A8DE76"/>
<text x="3307" y="1373" fill="#E5E9F6" font-family="Menlo, DejaVu Sans Mono, monospace" font-size="28" font-weight="400" text-anchor="start" xml:space="preserve">Accessibility</text>
<circle cx="3280" cy="1506" r="8" fill="#A8DE76"/>
<text x="3307" y="1513" fill="#E5E9F6" font-family="Menlo, DejaVu Sans Mono, monospace" font-size="28" font-weight="400" text-anchor="start" xml:space="preserve">CI · bundle tracking</text>
<circle cx="3280" cy="1646" r="8" fill="#A8DE76"/>
<text x="3307" y="1653" fill="#E5E9F6" font-family="Menlo, DejaVu Sans Mono, monospace" font-size="28" font-weight="400" text-anchor="start" xml:space="preserve">Release notes</text>
<rect x="3277" y="1740" width="447" height="65" rx="9" fill="#252D27" stroke="#A8DE76" stroke-width="2"/>
<text x="3500.5" y="1779" fill="#A8DE76" font-family="Menlo, DejaVu Sans Mono, monospace" font-size="28" font-weight="700" text-anchor="middle" xml:space="preserve">›  STABLE 1.0</text>
<line x1="105" y1="1942" x2="3735" y2="1942" stroke="#66708A" stroke-width="2" stroke-linecap="round"/>
<text x="1920" y="2029" fill="#E5E9F6" font-family="Menlo, DejaVu Sans Mono, monospace" font-size="38" font-weight="400" text-anchor="middle" xml:space="preserve">A compact control center for every OpenCode session</text>
</svg>